# xmcd CD database file
#
# Track frame offsets:
#	150
#	7225
#	16423
#	25917
#	47597
#	58112
#	77284
#	83993
#	97282
#	111701
#	121271
#	141810
#
# Disc length: 2070 seconds
#
# Revision: 0
# Processed by: cddbd v1.5.2PL0 Copyright (c) Steve Scherf et al.
# Submitted via: CDex 1.70beta2
#
DISCID=a008140c
DTITLE=Angela Luis und Band - Jazz Christmas
DYEAR=2010
DGENRE=Jazz
TTITLE0=Schneeflöckchen, Weißröckchen
TTITLE1=Leise rieselt der Schnee
TTITLE2=Kling Glöckchen
TTITLE3=Es ist ein Ros entsprungen
TTITLE4=Kommet Ihr Hirten
TTITLE5=Süßer die Glocken nie klingen
TTITLE6=Alle Jahre wieder
TTITLE7=Herbei oh Ihr Gläubigen
TTITLE8=Stille Nacht
TTITLE9=Ihr Kinderlein Kommet
TTITLE10=Macht hoch die Tür
TTITLE11=Schneeflöckchen, Weißröckchen (instr.)
EXTD=YEAR: 2010
EXTT0=
EXTT1=
EXTT2=
EXTT3=
EXTT4=
EXTT5=
EXTT6=
EXTT7=
EXTT8=
EXTT9=
EXTT10=
EXTT11=
PLAYORDER=
